<svg width="20" height="20" viewBox="0 0 20 20" fill="none" xmlns="http://www.w3.org/2000/svg">
<path d="M0 5.20557H3.13801V6.54412H0V5.20557Z" fill="white"/>
<path d="M19.8281 1.69455C19.4137 1.28014 18.1055 0.523263 16.7243 1.37537C15.904 0.869279 14.855 0.86924 14.0346 1.37541C13.2145 0.869122 12.1654 0.869083 11.3448 1.37537C10.5246 0.869357 9.47551 0.869318 8.65523 1.37537C7.83484 0.869122 6.78574 0.869122 5.96543 1.37545C5.1452 0.869279 4.09609 0.869279 3.27578 1.37541C1.90844 0.531857 0.598281 1.2683 0.17168 1.6949C0.117246 1.74929 0.0740652 1.81386 0.044607 1.88494C0.0151488 1.95603 -9.07998e-06 2.03222 4.0806e-09 2.10916V4.03365H3.72395C4.04754 4.03365 4.30988 4.296 4.30988 4.61959V7.13002C4.30988 7.45361 4.04754 7.71596 3.72395 7.71596H4.0806e-09V9.05451H0.590313C3.67988 9.0569 6.1927 11.5712 6.1927 14.6613V18.8511C6.48668 18.9573 6.79996 19.0128 7.1218 19.0128H12.8782C13.2 19.0128 13.5133 18.9573 13.8073 18.8511V14.6613C13.8073 11.5712 16.3201 9.05693 19.4096 9.05455L20 9.05451V7.71596H16.2761C15.9525 7.71596 15.6901 7.45361 15.6901 7.13002V4.61959C15.6901 4.296 15.9525 4.03365 16.2761 4.03365H20V2.10916C20 1.95377 19.938 1.80444 19.8281 1.69455Z" fill="white"/>
<path d="M0.590332 10.2264H0.0209961C0.154082 12.1631 1.01107 14.0416 2.39053 15.4117L5.02084 18.042V14.6569C5.02084 12.2139 3.0333 10.2264 0.590332 10.2264ZM16.862 5.20557H20V6.54412H16.862V5.20557ZM14.9792 14.6569V18.042L17.6095 15.4117C18.9889 14.0417 19.846 12.1631 19.979 10.2264H19.4097C16.9667 10.2264 14.9792 12.2139 14.9792 14.6569Z" fill="white"/>
</svg>
